<?xml version="1.0" encoding="UTF-8" standalone="no"?>
<!-- Created with Inkscape (http://www.inkscape.org/) -->

<svg
   width="210mm"
   height="297mm"
   viewBox="0 0 210 297"
   version="1.1"
   id="svg1"
   xml:space="preserve"
   inkscape:version="1.3 (0e150ed6c4, 2023-07-21)"
   sodipodi:docname="simplicity.svg"
   xmlns:inkscape="http://www.inkscape.org/namespaces/inkscape"
   xmlns:sodipodi="http://sodipodi.sourceforge.net/DTD/sodipodi-0.dtd"
   xmlns="http://www.w3.org/2000/svg"
   xmlns:svg="http://www.w3.org/2000/svg"><sodipodi:namedview
     id="namedview1"
     pagecolor="#505050"
     bordercolor="#eeeeee"
     borderopacity="1"
     inkscape:showpageshadow="0"
     inkscape:pageopacity="0"
     inkscape:pagecheckerboard="0"
     inkscape:deskcolor="#d1d1d1"
     inkscape:document-units="mm"
     inkscape:zoom="0.76969697"
     inkscape:cx="396.25984"
     inkscape:cy="532.67717"
     inkscape:window-width="1920"
     inkscape:window-height="1080"
     inkscape:window-x="0"
     inkscape:window-y="0"
     inkscape:window-maximized="0"
     inkscape:current-layer="layer1" /><defs
     id="defs1" /><g
     inkscape:label="Layer 1"
     inkscape:groupmode="layer"
     id="layer1"><path
       style="fill:#000000;stroke-width:3.78754"
       d="m 93.849009,252.39746 c -12.692199,-1.57504 -25.066914,-6.01467 -37.285414,-13.37672 -4.45805,-2.68613 -6.099987,-3.92298 -5.609841,-4.22587 0.15302,-0.0943 1.610084,0.18406 3.238348,0.6188 3.406931,0.90977 8.32771,1.66031 14.071163,2.14621 4.311852,0.36474 5.165408,0.54519 9.520139,2.01214 1.56165,0.52605 4.19221,1.27469 5.845685,1.66372 1.653525,0.38897 3.591726,0.86288 4.307193,1.05308 2.174316,0.57809 13.477468,1.61123 17.739488,1.62142 4.97103,0.0118 13.65337,-0.81091 17.88057,-1.69448 1.75051,-0.36588 4.9072,-1.26603 7.01481,-2.00028 6.62275,-2.30725 8.01038,-2.64706 10.80874,-2.64706 4.13444,0 12.74443,-1.58543 17.51817,-3.22579 1.34651,-0.46268 2.53651,-0.75292 2.64446,-0.64497 0.25566,0.25565 0.38553,0.15265 -3.08844,2.44228 -13.95648,9.19793 -26.76901,14.29812 -40.58584,16.15576 -4.44173,0.59718 -19.512536,0.66101 -24.019231,0.10192 z m 7.824721,-18.09619 c -2.384826,-0.0514 -4.473231,-0.23103 -4.640913,-0.39863 -0.183685,-0.1837 0.278006,-0.56749 1.162662,-0.96628 0.807175,-0.36362 2.648141,-1.19903 4.091031,-1.85612 1.44292,-0.65714 2.77556,-1.19474 2.96137,-1.19474 0.18598,0 1.46135,0.52609 2.83445,1.16913 1.37309,0.64302 2.62837,1.16914 2.78948,1.16914 0.6584,0 2.6539,1.15471 2.6539,1.5357 0,0.55446 -1.98231,0.84306 -5.01061,0.72951 -1.37792,-0.0519 -4.45654,-0.13639 -6.84137,-0.18786 z m -34.913651,-4.84544 c -0.09166,-0.0916 -1.682313,-0.32988 -3.534385,-0.52908 -14.449133,-1.55455 -29.672432,-10.39828 -41.508042,-24.11341 -3.834242,-4.44313 -10.068876,-14.21051 -9.577857,-15.00499 0.546919,-0.88496 6.224936,0.11211 9.829803,1.72636 3.853747,1.72553 7.703403,4.29462 10.348472,6.90601 3.526806,3.48197 6.246183,5.88736 10.58057,9.35886 2.961099,2.37164 12.088391,7.54596 16.377515,9.28455 0.533589,0.21628 1.571414,0.63926 2.306318,0.93993 4.959555,2.02913 11.497683,3.70829 18.873231,4.8471 1.194215,0.18445 3.148351,0.49758 4.342532,0.69596 1.194214,0.19846 4.275707,0.46105 6.847838,0.58369 6.000364,0.28597 6.105695,0.66218 0.668079,2.38488 -5.041745,1.59727 -6.574222,1.94236 -10.522273,2.36941 -3.631121,0.39275 -14.780923,0.80129 -15.031801,0.55073 z m 66.975041,-0.0617 c -0.1837,-0.0757 -2.16308,-0.29695 -4.39852,-0.49114 -4.49547,-0.39076 -6.67655,-0.84589 -11.6354,-2.42804 -5.4369,-1.73464 -5.31345,-2.15283 0.66809,-2.26294 1.83723,-0.0341 4.16713,-0.1871 5.17761,-0.34049 11.50435,-1.74617 14.84293,-2.46981 21.28826,-4.61443 4.27242,-1.42159 4.91955,-1.68523 9.2764,-3.77922 5.36963,-2.58076 8.1379,-4.27416 13.07849,-8.00043 3.88615,-2.93098 4.90209,-3.81677 9.96634,-8.68982 3.59396,-3.45829 4.60708,-4.23364 8.0209,-6.1382 4.15357,-2.31734 11.89785,-4.00517 12.39788,-2.70211 0.1016,0.26437 -0.35413,1.3998 -1.01261,2.52319 -0.65837,1.12338 -1.19705,2.11537 -1.19705,2.20442 0,0.303 -4.10356,6.30781 -5.79645,8.48193 -2.4385,3.13165 -3.07223,3.84269 -6.24691,7.00944 -7.54082,7.52199 -16.47408,13.09498 -25.53615,15.93076 -1.46976,0.45991 -2.97296,0.96153 -3.34039,1.11467 -1.04979,0.43749 -3.43961,1.02752 -6.34677,1.56694 -2.45896,0.45628 -13.59319,0.93325 -14.36372,0.61532 z m -30.23063,-15.06275 c -0.64301,-0.81614 -1.32473,-1.67132 -1.51495,-1.9004 -1.60364,-1.93141 -3.631791,-6.10593 -4.377872,-9.01086 -0.605628,-2.35793 -0.476536,-8.20287 0.226883,-10.27893 1.244768,-3.67338 5.925299,-11.30846 7.258319,-11.84008 0.5995,-0.239 4.3361,4.60872 5.82305,7.55463 1.85259,3.6704 2.37073,5.88421 2.37119,10.13114 4.2e-4,4.00988 -0.43576,5.90148 -2.141,9.28485 -1.94402,3.85723 -4.87511,7.60202 -5.92033,7.56387 -0.30604,-0.0117 -1.0823,-0.68804 -1.72534,-1.50422 z M 90.977978,211.1792 c -1.062777,-0.40067 -7.79213,-7.54629 -10.381,-11.02318 -8.584224,-11.52863 -11.892465,-23.98721 -9.985515,-37.60487 0.522415,-3.7305 0.626775,-4.15084 2.107742,-8.49264 0.830299,-2.43422 5.467393,-11.96814 6.002342,-12.34095 0.146619,-0.10188 0.621496,-0.78686 1.055656,-1.52172 1.00123,-1.6947 4.107053,-5.8908 5.810279,-7.84994 3.834844,-4.41109 18.461118,-19.60928 19.318168,-20.07352 0.45991,-0.24922 1.58681,0.7363 6.0127,5.25798 15.42984,15.76394 17.41014,18.14691 23.07693,27.76999 2.09084,3.55059 2.88414,5.55151 5.27749,13.31146 1.19053,3.86015 1.49997,14.53287 0.56528,19.49758 -0.70538,3.74667 -1.279,6.10274 -1.58592,6.51378 -0.13706,0.18369 -0.35262,0.76595 -0.47917,1.29385 -0.84941,3.54798 -5.94938,12.09457 -10.52226,17.63336 -4.22168,5.11333 -8.38035,8.7364 -8.38035,7.30096 0,-0.18027 0.97706,-2.81935 2.17125,-5.86435 1.19421,-3.04504 2.17128,-5.61139 2.17128,-5.70305 0,-0.0916 0.28369,-0.79728 0.63035,-1.56805 2.15236,-4.78461 5.27972,-14.45916 6.12199,-18.93842 0.5476,-2.91201 0.54318,-12.5869 -0.009,-15.52823 -0.39599,-2.11659 -0.68834,-3.23857 -1.7856,-6.85246 -0.57942,-1.90823 -2.61935,-6.36735 -3.89685,-8.51803 -1.54622,-2.60317 -5.72008,-8.18203 -7.88157,-10.5347 -5.57114,-6.06393 -8.27805,-9.02158 -9.54241,-10.42631 -0.78546,-0.87268 -1.56027,-1.58671 -1.7218,-1.58671 -0.16137,0 -0.63094,0.40315 -1.04309,0.89583 -0.91075,1.08876 -7.435741,8.26547 -8.599308,9.45825 -1.482107,1.51929 -3.861405,4.45145 -5.55766,6.84901 -1.538793,2.17495 -4.797603,7.3815 -4.797603,7.66499 0,0.0689 -0.504234,1.22861 -1.120503,2.57697 -1.812108,3.96472 -2.618394,6.58813 -3.413823,11.10773 -0.875557,4.97519 -0.366245,14.88844 1.013898,19.73724 0.527477,1.85317 3.213836,9.48874 3.878212,11.0233 0.159018,0.3674 0.604706,1.49483 0.990289,2.50531 2.866675,7.51224 4.012396,10.42668 4.64465,11.81454 0.85865,1.8848 0.812704,2.57686 -0.146954,2.215 z m -14.539916,-0.89321 c -2.516665,-1.70425 -12.037558,-11.05618 -13.853487,-13.60761 -0.734904,-1.03252 -2.064863,-2.88963 -2.955459,-4.12695 -1.310261,-1.82021 -4.984215,-8.83826 -6.248912,-11.93673 -4.436875,-10.87017 -9.265195,-21.2283 -10.354606,-22.2137 -0.101506,-0.0917 -0.541921,-0.76827 -0.978588,-1.50317 -1.451158,-2.44221 -4.706623,-6.4009 -9.02499,-10.97455 -2.278431,-2.41315 -8.908712,-7.88922 -11.190325,-9.24232 -0.734897,-0.43579 -1.419154,-0.91135 -1.520547,-1.05676 -0.329515,-0.47211 -5.345282,-2.94428 -5.973975,-2.94428 -0.562525,0 -0.57544,0.0989 -0.163626,1.25265 0.24581,0.68896 0.453634,1.65625 0.4617,2.14951 0.0075,0.49329 0.159068,1.27629 0.335197,1.74003 0.337849,0.88807 0.809171,7.8376 1.362341,20.07784 0.446287,9.87619 0.984913,13.31297 2.872434,18.32824 0.838826,2.22885 1.600843,4.61615 1.693371,5.3051 0.161348,1.20213 0.128405,1.25265 -0.815911,1.25265 -0.541239,0 -1.722005,-0.22346 -2.623895,-0.49704 -0.901846,-0.27353 -2.616845,-0.58729 -3.81102,-0.69754 C 9.9784714,181.25276 9.4657511,180.9871 8.6684361,179.01281 6.2407748,173.00152 5.6667729,168.59892 5.2874506,153.0811 4.8279086,134.28156 4.3362847,130.69472 0.98832618,121.7173 c -1.40305696,-3.76235 -1.39233787,-3.8334 0.55048092,-3.64921 3.9423011,0.37382 9.3639759,1.78968 13.4451259,3.51124 3.146842,1.32741 9.558541,4.59398 10.02119,5.10549 0.09166,0.1015 0.768303,0.54457 1.5032,0.98445 5.374974,3.21737 14.05098,11.20927 18.682272,17.20919 1.884338,2.44114 5.400275,7.49001 7.453199,10.70275 0.554418,0.86762 3.761104,7.42154 3.761104,7.68705 0,0.11513 0.207935,0.68304 0.462382,1.26197 0.774514,1.76321 2.808801,7.54039 3.89939,11.07382 5.70173,18.4732 7.689999,22.66211 15.429748,32.50729 1.056577,1.344 1.921092,2.50898 1.921092,2.58878 0,0.33142 -0.909321,0.10725 -1.679397,-0.41416 z m 57.008628,-0.52632 c 0.13857,-0.22953 0.78633,-1.12471 1.43938,-1.98907 0.65301,-0.86431 1.65186,-2.21719 2.21957,-3.00636 1.68887,-2.34755 4.91037,-8.23571 6.26778,-11.45605 0.69696,-1.6535 1.46901,-3.45731 1.71565,-4.00847 0.85821,-1.91771 3.81666,-11.4658 4.55406,-14.69774 0.16778,-0.7349 0.43905,-1.63683 0.60305,-2.00426 0.16404,-0.3674 0.55117,-1.49483 0.86043,-2.50531 1.21852,-3.98165 6.31593,-14.81231 7.71589,-16.39425 0.2568,-0.29013 0.46669,-0.63252 0.46669,-0.76104 0,-0.22876 4.00057,-5.88651 4.78167,-6.76246 0.42791,-0.47984 0.69888,-0.81682 1.77082,-2.20234 3.73834,-4.83192 8.68169,-9.70281 13.72473,-13.52349 4.76088,-3.60695 6.32999,-4.61773 10.45447,-6.73462 6.19199,-3.17809 11.12185,-4.68459 18.45283,-5.63897 1.53637,-0.19998 1.89482,0.41894 1.15671,1.9974 -0.69063,1.47695 -2.0791,5.62987 -2.7632,8.26475 -1.28103,4.93403 -1.52908,8.28759 -1.78026,24.06857 -0.13605,8.5528 -0.35793,15.72936 -0.49311,15.94789 -0.13522,0.21855 -0.39446,1.338 -0.57641,2.48763 -0.18182,1.14967 -0.49556,2.61639 -0.69691,3.2594 -0.96931,3.09571 -2.06739,6.05613 -2.43062,6.5529 -0.27725,0.37921 -1.43429,0.69679 -3.71517,1.0198 -8.40226,1.18978 -8.18505,1.32579 -6.49191,-4.06524 2.10035,-6.6876 2.62271,-10.71999 3.00735,-23.21581 0.27838,-9.04272 0.44707,-11.17984 1.20012,-15.19884 1.17087,-6.24906 1.25636,-6.84779 0.97783,-6.84779 -0.75135,0 -8.52811,4.67204 -10.69084,6.42276 -1.57784,1.27723 -2.32213,1.91494 -4.50955,3.86374 -3.00076,2.6734 -6.48491,6.4653 -9.27107,10.08993 -0.77672,1.01048 -1.56388,2.01877 -1.74924,2.24067 -0.18521,0.22196 -0.33709,0.50091 -0.33709,0.62003 0,0.11893 -0.42481,0.76428 -0.94405,1.43377 -2.23203,2.87793 -4.94196,8.03584 -7.22082,13.74369 -0.33027,0.82675 -0.72998,1.80383 -0.88866,2.17126 -0.15868,0.36738 -0.82232,2.09609 -1.47476,3.84147 -2.86005,7.65098 -7.60293,16.20885 -11.58692,20.90688 -5.84717,6.89514 -11.87224,12.4971 -13.44099,12.4971 -0.35945,0 -0.46937,-0.1493 -0.30755,-0.41753 z m -76.373786,-2.86789 c -5.554768,-3.02987 -6.570587,-3.68679 -10.711353,-6.92722 -6.82371,-5.3399 -12.898546,-12.56104 -16.278434,-19.34994 -3.445337,-6.92036 -4.983987,-11.5167 -5.758919,-17.20309 -0.389434,-2.85765 -1.30939,-15.14012 -1.146941,-15.31283 0.553093,-0.58794 5.15132,3.58112 8.23112,7.46289 1.963158,2.4744 4.004187,5.34448 4.394607,6.17975 0.128774,0.27574 0.689826,1.25266 1.24667,2.17126 1.256138,2.07215 3.695542,7.12311 4.517212,9.35314 0.338604,0.91858 0.808184,2.04599 1.043807,2.5053 0.235585,0.45927 0.429356,1.08926 0.430492,1.39995 0.0012,0.31057 0.135593,0.64745 0.299215,0.74842 0.163241,0.10107 0.398828,0.59839 0.52325,1.10536 0.636534,2.59386 3.888553,9.89634 6.448704,14.48071 1.335222,2.39096 4.929486,7.84422 6.05821,9.19161 0.478253,0.57086 1.160654,1.39759 1.516493,1.83721 0.356028,0.43959 1.468544,1.66361 2.472652,2.71999 1.00408,1.05642 1.614868,1.91946 1.357237,1.91789 -0.257562,-0.001 -2.34737,-1.02775 -4.643908,-2.2804 z m 92.863146,0.96931 c 0,-0.17158 1.01628,-1.56198 2.25834,-3.08988 5.97646,-7.35184 9.99633,-14.64767 13.77001,-24.99171 2.52931,-6.93313 6.00486,-14.52892 8.07025,-17.63736 0.52493,-0.79004 0.95443,-1.49202 0.95443,-1.55997 0,-0.28103 3.2825,-4.84434 4.67655,-6.50128 1.80215,-2.14208 5.93985,-5.70116 6.62802,-5.70116 0.93812,0 -0.0151,14.90337 -1.28342,20.04461 -1.18943,4.82518 -1.29689,5.1906 -1.82294,6.19941 -0.28104,0.53916 -0.51212,1.08203 -0.51325,1.20637 -0.009,0.75331 -2.63417,5.70237 -4.44528,8.37365 -2.94923,4.34984 -4.50816,6.28645 -7.86669,9.77242 -4.804,4.98631 -12.42343,10.77083 -17.20725,13.06342 -2.42981,1.16445 -3.21877,1.36579 -3.21877,0.82148 z m -57.985696,-23.4885 c 0.360581,-2.83092 1.122866,-6.28244 1.862948,-8.43452 1.58645,-4.61295 5.345806,-11.06344 8.200668,-14.07097 0.19582,-0.20643 0.86932,-0.99564 1.4963,-1.75371 1.07105,-1.29492 2.44009,-1.83757 2.72222,-1.07896 0.0613,0.16476 0.71263,1.01351 1.44752,1.88631 1.42065,1.6872 3.68714,4.44074 4.1124,4.99614 0.54095,0.70642 2.69877,4.41995 3.51166,6.0434 1.82648,3.64771 3.38474,11.36395 2.36686,11.72036 -0.20035,0.07 -1.49894,-1.41776 -2.88575,-3.30645 -2.70575,-3.68498 -8.69139,-9.59047 -9.73898,-9.60861 -0.56734,-0.0113 -6.630742,6.19573 -8.604651,8.80637 -1.094447,1.44749 -2.435381,3.51435 -2.979915,4.59307 -1.258609,2.49324 -1.812042,2.56925 -1.51128,0.20757 z m -4.322039,-15.78337 c 0.86785,-9.38716 6.027091,-20.10669 13.357645,-27.75358 0.19089,-0.19923 1.02369,-1.16361 1.85047,-2.14303 2.4769,-2.93428 2.37403,-2.86922 3.10178,-1.96123 0.98107,1.22421 2.93988,3.57582 4.4141,5.29938 2.65003,3.09821 2.99228,3.52953 4.3715,5.50901 2.24587,3.22324 4.29565,7.1054 5.92319,11.21801 0.93457,2.36154 2.40529,9.7816 2.05206,10.35313 -0.11814,0.19128 -1.03041,-1.25753 -2.02725,-3.21933 -2.14712,-4.22549 -3.28702,-5.77213 -7.90001,-10.71893 -3.8511,-4.1297 -7.37677,-7.47872 -7.74432,-7.3562 -0.43479,0.14506 -9.789261,10.08637 -10.709072,11.38107 -0.367385,0.51719 -1.084293,1.4757 -1.593002,2.13 -1.273456,1.63797 -2.683242,4.17905 -3.750845,6.76061 -1.300719,3.1454 -1.601027,3.25717 -1.346246,0.50109 z M 147.6958,155.64515 c 1.01462,-11.13124 1.03146,-12.70754 0.20984,-19.62484 -1.1518,-9.69626 -5.80264,-20.19487 -13.09612,-29.56255 -1.91145,-2.45509 -10.03421,-11.78986 -10.90008,-12.5265 -1.11361,-0.94745 -8.94204,-10.08027 -11.3101,-13.19458 -1.20905,-1.59016 -5.72372,-9.05082 -6.61992,-10.93982 -0.32687,-0.68895 -0.67923,-1.25053 -0.783,-1.24795 -0.10372,0.002 -0.84456,1.24269 -1.64622,2.75581 -0.80164,1.51312 -1.795,3.27725 -2.20749,3.92029 -3.197416,4.98445 -4.163191,6.42523 -5.48581,8.18397 -0.829008,1.10233 -1.627687,2.08868 -1.774876,2.19189 -0.147289,0.10301 -0.63956,0.69187 -1.094212,1.3081 -0.666387,0.90322 -4.663535,5.36589 -7.187356,8.02448 -6.844654,7.21 -10.97577,12.35601 -14.614649,18.20511 -2.173662,3.4939 -5.918291,11.16594 -6.271701,12.84958 -0.133717,0.63699 -0.355656,1.38858 -0.492924,1.67019 -1.117806,2.29157 -2.489052,12.71674 -2.236566,17.00431 0.262842,4.46688 -0.07725,9.07355 -0.687182,9.3077 -0.665616,0.25528 -0.941879,-0.26589 -2.077352,-3.92037 -2.047543,-6.58972 -2.916709,-16.37873 -2.016866,-22.71472 0.76372,-5.37759 1.027031,-6.892 1.306778,-7.51588 0.164766,-0.36739 0.627217,-1.72034 1.027635,-3.00636 0.400422,-1.28606 0.941739,-2.81199 1.202955,-3.39091 0.261351,-0.57893 0.474928,-1.13971 0.474928,-1.24622 0,-0.50825 2.807927,-6.00268 4.237989,-8.29267 3.87439,-6.20429 6.98028,-10.1942 12.244484,-15.72965 0.987104,-1.03794 4.676052,-5.24173 8.707131,-9.92219 7.238833,-8.40508 13.085993,-18.90206 17.440574,-31.3097 0.68777,-1.95971 1.3387,-2.449327 1.77635,-1.33613 0.16103,0.40974 0.76842,2.0227 1.34955,3.58434 1.21624,3.26838 1.26598,3.38894 2.6877,6.51377 1.99016,4.37431 2.82687,6.00966 4.6998,9.18611 1.7182,2.91395 5.21323,8.28889 5.64743,8.68503 0.10075,0.092 0.99899,1.21924 1.99622,2.5053 2.39296,3.08598 5.5556,6.66619 11.0314,12.4879 5.05099,5.37005 11.44012,14.26544 14.18328,19.74699 2.92943,5.85376 4.07998,9.38068 5.06717,15.53286 1.58246,9.86203 1.21135,17.25762 -1.27392,25.38705 -1.29286,4.22905 -2.90735,8.18397 -3.34088,8.18397 -0.20035,0 -0.26965,-0.7015 -0.17384,-1.75371 z m -8.32043,-15.90055 c -4.35165,-7.7356 -8.07749,-12.26626 -19.54481,-23.76671 -4.12187,-4.13376 -8.37509,-8.49295 -9.45162,-9.68716 -3.37029,-3.73861 -4.98084,-5.34464 -5.3597,-5.34464 -0.20113,0 -1.33841,1.16497 -2.52702,2.58882 -1.18861,1.42385 -5.921697,6.42189 -10.518038,11.10681 -4.596292,4.68493 -9.312577,9.57025 -10.480584,10.85631 -2.534881,2.79104 -6.570853,8.14196 -8.499503,11.26869 -1.301138,2.10943 -2.166272,2.81149 -2.270397,1.84237 -0.284827,-2.65207 1.169432,-9.25553 2.924434,-13.27809 2.557201,-5.86126 7.255221,-12.94502 12.887026,-19.43137 4.415557,-5.0855 6.801105,-7.8209 7.112104,-8.15515 0.185209,-0.19922 1.013546,-1.16883 1.840276,-2.15465 0.826746,-0.98579 2.104441,-2.48902 2.839346,-3.3405 2.068396,-2.39661 2.537976,-2.97474 4.670676,-5.75047 1.74124,-2.26628 2.84524,-3.16927 2.84524,-2.32729 0,0.14392 0.29315,0.6324 0.65183,1.08565 0.35868,0.45322 1.88275,2.38589 3.38712,4.29474 1.50441,1.90884 2.97731,3.72447 3.27312,4.03471 0.2958,0.3102 0.86603,0.95526 1.26708,1.43328 0.40111,0.47807 2.05458,2.35449 3.67445,4.16982 4.59686,5.15159 6.62168,7.47786 7.92543,9.10521 0.66233,0.82675 1.37506,1.70784 1.58386,1.95797 1.64058,1.96539 4.96028,6.61532 4.96028,6.94786 0,0.12538 0.20605,0.46496 0.45777,0.75501 0.70123,0.80785 2.12671,3.50567 3.06769,5.80585 0.46583,1.13872 0.97468,2.37104 1.13072,2.73847 1.17065,2.75615 2.1888,6.76034 2.70465,10.63681 0.45692,3.43363 0.3083,4.13607 -0.55143,2.60765 z m 22.7526,-5.478 c 0.41718,-4.87199 2.75422,-14.30717 4.81952,-19.45784 1.06422,-2.65405 3.9854,-8.4016 5.99207,-11.78964 1.07843,-1.82082 1.26239,-2.40705 0.75535,-2.40705 -0.95461,0 -5.16969,1.82169 -5.98998,2.58878 -0.24543,0.22953 -0.57246,0.41758 -0.72638,0.41758 -0.60797,0 -4.94479,4.65307 -6.53851,7.01532 -1.7236,2.55473 -2.65351,3.20111 -3.03833,2.11193 -0.37345,-1.05718 -1.46258,-3.59097 -1.81399,-4.22019 -1.89132,-3.38644 -2.6453,-5.00451 -2.6453,-5.6768 0,-1.02847 4.45821,-5.3613 8.02421,-7.79859 6.74003,-4.60663 15.19936,-6.80265 24.37766,-6.32837 4.70438,0.24316 6.34679,0.47575 6.34679,0.89905 0,0.15945 -0.68718,1.00691 -1.5271,1.88282 -2.93339,3.05912 -6.31997,8.82982 -7.40379,12.61588 -1.01042,3.52965 -1.73908,8.76388 -1.74866,12.561 l -0.0118,3.87594 -2.4218,1.60312 c -6.43814,4.26166 -12.49743,9.59732 -15.26646,13.44319 -0.56218,0.78084 -1.11202,1.41969 -1.22186,1.41969 -0.10992,0 -0.0935,-1.24012 0.0379,-2.75582 z M 43.705349,131.82008 c -3.477077,-3.50757 -7.445246,-6.69952 -11.768951,-9.46689 l -2.25476,-1.44316 -0.0075,-3.21767 C 29.655168,107.44134 26.045947,97.87852 19.596902,90.98914 18.856096,90.19773 18.303911,89.50151 18.36989,89.44197 c 0.852991,-0.77012 11.642863,-1.19592 13.791876,-0.54431 0.564191,0.1712 1.927745,0.45981 3.030071,0.64164 2.887469,0.47633 5.054623,0.97916 5.745622,1.33318 0.330653,0.16931 1.503047,0.65388 2.605373,1.07665 2.131288,0.81739 7.023238,3.58131 8.448906,4.77355 1.780182,1.48877 4.098951,3.93597 4.954747,5.22915 0.793074,1.19842 0.835608,1.40397 0.397617,1.92184 -0.767508,0.90738 -3.48094,6.7222 -4.11683,8.82232 -0.343531,1.13444 -0.726526,1.82995 -0.953742,1.73193 -0.208693,-0.0901 -0.809244,-1.06767 -1.334236,-2.17238 -1.198112,-2.52103 -4.225267,-6.18718 -6.334168,-7.67118 -0.885528,-0.62312 -1.789728,-1.28329 -2.009368,-1.46702 -1.044452,-0.87379 -5.612605,-2.65749 -6.255123,-2.4424 -0.171198,0.0572 0.461473,1.38185 1.405632,2.94349 1.491609,2.46705 4.080394,7.60538 5.722141,11.35736 1.413738,3.23096 3.214637,9.56823 3.749589,13.19458 0.10833,0.73486 0.357165,2.274 0.552867,3.42022 0.344288,2.01744 0.19809,3.76163 -0.315502,3.76163 -0.137486,0 -1.825783,-1.58947 -3.751596,-3.53214 z M 55.903768,81.4151 c -0.183696,-0.0655 -0.74467,-0.20944 -1.246519,-0.32004 -1.22845,-0.27081 -3.156157,-2.01278 -3.950783,-3.5704 -1.317383,-2.58231 -0.390799,-6.11154 2.131969,-8.12015 1.109256,-0.88318 1.592282,-1.03108 3.674408,-1.12501 1.866233,-0.0841 2.656277,0.0303 3.566427,0.52393 1.392108,0.75258 3.231228,3.32864 3.535893,4.95266 0.47094,2.51031 -1.3067,5.89402 -3.655132,6.95749 -1.093499,0.49514 -3.477792,0.90749 -4.056263,0.70149 z m 96.040892,-0.0727 c -1.73208,-0.35792 -3.65953,-2.09239 -4.52312,-4.07024 -0.55863,-1.27939 -0.66131,-4.24106 -0.15801,-4.55224 0.1837,-0.11363 0.33483,-0.46064 0.33558,-0.7713 0.002,-0.73478 1.74455,-2.58382 3.10561,-3.29539 0.65774,-0.34391 1.86017,-0.56036 3.12854,-0.56332 1.66853,-0.004 2.3116,0.16174 3.38276,0.87046 1.57259,1.04066 2.57898,2.56196 3.0461,4.60462 0.98819,4.32128 -3.72335,8.72684 -8.31768,7.77741 z"
       id="path1" /></g></svg>
